<svg width="302" height="69" viewBox="0 0 302 69" fill="none" xmlns="http://www.w3.org/2000/svg">
<path d="M55.851 19.0145L43.5389 12.0056C43.0234 11.7035 42.3493 11.8848 42.0321 12.4084L40.3667 15.1073C40.1883 15.3892 40.1486 15.6913 40.2279 15.9934C40.3072 16.3157 40.5055 16.5574 40.7632 16.7185L48.9515 21.371L35.4101 28.8028C34.9343 29.0647 34.3594 29.0647 33.8637 28.8028L20.3224 21.371L28.5106 16.7185C28.7882 16.5574 28.9864 16.3157 29.0459 16.0136C29.1252 15.6913 29.0657 15.3892 28.9071 15.1274L27.2417 12.4286C26.9245 11.9049 26.2702 11.7236 25.7349 12.0258L13.4426 19.0145C12.5108 19.5382 11.916 20.5654 11.916 21.6529V35.2075C11.916 35.8319 12.4315 36.3556 13.0461 36.3556H16.4364C17.051 36.3556 17.5467 35.8319 17.5467 35.2075V26.0637L30.9294 33.4352C31.4449 33.7171 31.7819 34.2811 31.7819 34.9054V49.7692L23.4549 45.1973C23.2963 45.0966 23.098 45.0563 22.9196 45.0563C22.5231 45.0563 22.1662 45.2778 21.9679 45.6202L20.362 48.3191C20.2034 48.601 20.1637 48.9031 20.2431 49.2254C20.3224 49.5275 20.5206 49.7692 20.7982 49.9303L33.2293 56.7781C34.1214 57.2615 35.1722 57.2615 36.0446 56.7781L48.4757 49.9102C48.7532 49.7692 48.9515 49.5275 49.0308 49.2052C49.1101 48.9031 49.0704 48.5809 48.9118 48.3191L47.3059 45.5799C46.9887 45.0563 46.3344 44.875 45.7991 45.157L37.4721 49.749V34.9054C37.4721 34.3012 37.8091 33.7373 38.3246 33.4352L51.7272 26.0839V35.2075C51.7272 35.852 52.2426 36.3556 52.8573 36.3556H56.2476C56.8622 36.3556 57.3777 35.8319 57.3777 35.2075V21.6328C57.3975 20.5452 56.8225 19.5382 55.8709 19.0145H55.851Z" fill="white"/>
<path d="M301.084 26.0631H292.569L285.67 33.8083V16.9826H278.377V48.9726H285.67V41.9472L287.891 39.6205L293.444 48.9726H302.009L292.916 34.6547L301.084 26.0631ZM264.707 44.2332C263.999 44.2717 263.294 44.1241 262.664 43.8056C262.034 43.4872 261.503 43.0096 261.125 42.4225C260.343 41.232 259.95 39.6024 259.95 37.5473C259.95 35.4922 260.362 33.8264 261.125 32.6132C261.502 32.0251 262.033 31.5467 262.663 31.2281C263.293 30.9096 263.999 30.7626 264.707 30.8026C265.167 30.7782 265.627 30.846 266.059 31.0016C266.491 31.1573 266.886 31.3976 267.22 31.7079C267.882 32.3979 268.33 33.2584 268.511 34.1885H275.633C275.467 32.9561 275.083 31.7613 274.499 30.6577C273.938 29.5967 273.169 28.6538 272.236 27.8829C271.249 27.0836 270.119 26.4698 268.904 26.0722C267.524 25.6264 266.077 25.4077 264.624 25.4249C262.911 25.3971 261.21 25.7049 259.621 26.3302C258.176 26.9078 256.87 27.7761 255.79 28.8787C254.722 29.9894 253.891 31.2975 253.347 32.7264C252.761 34.2745 252.473 35.9149 252.495 37.5654C252.477 39.208 252.777 40.8391 253.379 42.3727C253.937 43.8068 254.783 45.1167 255.868 46.2249C256.965 47.3274 258.284 48.1952 259.742 48.7734C261.36 49.4019 263.091 49.7097 264.832 49.6788C266.351 49.6975 267.861 49.4538 269.293 48.959C270.563 48.5257 271.734 47.8503 272.736 46.9718C273.68 46.1324 274.437 45.1105 274.957 43.9706C275.473 42.8133 275.761 41.5706 275.804 40.3086H268.738C268.404 42.934 267.061 44.2468 264.707 44.2468V44.2332ZM242.652 38.0452C242.106 38.3068 241.538 38.5233 240.954 38.6925C240.306 38.8872 239.603 39.0728 238.849 39.2493C237.761 39.4513 236.718 39.8373 235.767 40.39C235.452 40.6088 235.2 40.9023 235.034 41.2429C234.868 41.5835 234.794 41.9599 234.818 42.3365C234.818 43.266 235.126 43.9223 235.743 44.3056C236.422 44.7156 237.21 44.9189 238.006 44.8895C239.234 44.9448 240.439 44.5456 241.38 43.7715C241.808 43.3955 242.146 42.9314 242.369 42.4125C242.593 41.8936 242.696 41.3327 242.671 40.7703L242.652 38.0452ZM250.519 48.6467V48.959H243.379C243.162 48.655 243.005 48.3142 242.916 47.9541C242.78 47.4462 242.674 46.9308 242.601 46.4105H242.509C241.816 47.3558 240.909 48.1307 239.857 48.6738C238.539 49.2938 237.085 49.5861 235.623 49.5248C234.542 49.5328 233.465 49.3802 232.43 49.0722C231.504 48.7993 230.647 48.3363 229.917 47.7142C229.215 47.1099 228.658 46.3619 228.284 45.5233C227.884 44.5893 227.687 43.5843 227.706 42.5719C227.674 41.4729 227.924 40.3837 228.432 39.4032C228.891 38.5614 229.552 37.8408 230.357 37.3028C231.223 36.7274 232.18 36.296 233.189 36.0263C234.31 35.7169 235.453 35.4914 236.609 35.3519C238.161 35.2079 239.693 34.9044 241.181 34.4465C242.06 34.1161 242.495 33.5638 242.495 32.7898C242.513 32.4531 242.456 32.1167 242.327 31.804C242.198 31.4912 242.001 31.2097 241.75 30.9791C241.235 30.5596 240.419 30.3499 239.302 30.3499C238.346 30.2832 237.398 30.5529 236.627 31.1104C235.994 31.6804 235.606 32.4657 235.544 33.3058H228.747C228.774 32.2539 229.021 31.2186 229.473 30.2639C229.935 29.2972 230.608 28.4412 231.445 27.7561C232.402 26.9897 233.502 26.4118 234.684 26.0541C236.165 25.6116 237.708 25.4007 239.256 25.4294C240.749 25.3953 242.24 25.5475 243.694 25.8821C244.805 26.1497 245.852 26.628 246.775 27.2899C247.752 27.9835 248.519 28.9217 248.997 30.0059C249.498 31.2125 249.743 32.5061 249.719 33.8083V45.3965C249.704 46.1224 249.757 46.8481 249.876 47.5648C249.904 47.782 249.977 47.9913 250.09 48.1797C250.204 48.3682 250.356 48.5317 250.538 48.6603L250.519 48.6467ZM218.608 37.7963C218.608 35.8256 218.231 34.2458 217.479 33.0568C217.114 32.4689 216.591 31.9895 215.968 31.6705C215.345 31.3514 214.645 31.2047 213.943 31.2462C213.202 31.2283 212.469 31.3983 211.815 31.7396C211.207 32.07 210.687 32.5351 210.297 33.0976C209.861 33.7307 209.548 34.4364 209.371 35.1798C209.172 36.0305 209.074 36.9009 209.08 37.7736C209.08 39.6507 209.51 41.1596 210.371 42.3003C210.793 42.8652 211.353 43.3182 211.999 43.6186C212.646 43.9189 213.358 44.057 214.073 44.0204C214.726 44.0429 215.375 43.9027 215.957 43.6129C216.54 43.3231 217.038 42.8933 217.405 42.3637C218.207 41.2652 218.606 39.7291 218.603 37.7555L218.608 37.7963ZM225.396 32.6766C225.862 34.2395 226.091 35.8606 226.077 37.4884C226.104 39.2088 225.862 40.9232 225.359 42.5719C224.932 43.9728 224.231 45.2794 223.296 46.4196C222.433 47.4577 221.341 48.2918 220.103 48.8594C218.811 49.4376 217.404 49.7282 215.984 49.7104C214.643 49.7484 213.313 49.464 212.111 48.8821C211.049 48.3363 210.126 47.5626 209.413 46.6187H209.325V56.5502H201.921V26.0631H208.997V28.838H209.135C209.904 27.8078 210.892 26.9536 212.032 26.3347C213.301 25.6787 214.721 25.3544 216.155 25.3932C217.59 25.3668 219.01 25.6773 220.297 26.2985C221.521 26.9091 222.59 27.7799 223.425 28.847C224.319 29.9994 224.985 31.3041 225.392 32.6947L225.396 32.6766ZM191.754 37.5654C191.754 35.4801 191.34 33.7947 190.51 32.5091C190.128 31.8913 189.582 31.3861 188.93 31.0474C188.278 30.7087 187.545 30.549 186.808 30.5853C186.075 30.5494 185.346 30.7095 184.7 31.0485C184.053 31.3875 183.513 31.8924 183.138 32.5091C182.33 33.7856 181.926 35.4711 181.926 37.5654C181.926 39.6597 182.334 41.3376 183.152 42.599C183.531 43.2108 184.072 43.7107 184.718 44.0455C185.364 44.3803 186.091 44.5374 186.822 44.5003C187.556 44.5379 188.288 44.3812 188.939 44.0466C189.591 43.7121 190.138 43.212 190.524 42.599C191.356 41.3316 191.771 39.6537 191.768 37.5654H191.754ZM198.353 32.7535C199.532 35.8563 199.532 39.2699 198.353 42.3727C197.792 43.8062 196.944 45.1158 195.859 46.2249C194.758 47.3328 193.43 48.2012 191.963 48.7734C188.684 49.9964 185.061 49.9964 181.782 48.7734C180.314 48.2034 178.983 47.3396 177.875 46.2374C176.768 45.1352 175.907 43.8189 175.35 42.3727C174.172 39.2699 174.172 35.8563 175.35 32.7535C175.909 31.3085 176.769 29.9933 177.877 28.8919C178.984 27.7906 180.314 26.9274 181.782 26.3574C185.061 25.1344 188.684 25.1344 191.963 26.3574C193.43 26.9296 194.758 27.798 195.859 28.9059C196.943 30.0141 197.791 31.322 198.353 32.7535ZM176.178 16.7699H167.664L165.082 23.3788H170.695L176.178 16.7699ZM164.355 48.9726H171.759V26.0631H164.355V48.9726ZM151.907 36.402C151.727 36.9996 151.56 37.5744 151.407 38.1222C151.255 38.6699 151.12 39.1588 151 39.5798C150.88 40.0867 150.759 40.562 150.639 41.0102H150.547C150.426 40.5575 150.306 40.1049 150.186 39.5798C150.065 39.1588 149.922 38.6744 149.755 38.1222C149.589 37.5699 149.431 36.9996 149.293 36.402L146.109 26.0631H138.501L146.525 48.9726H154.498L162.513 26.0631H155.123L151.907 36.402ZM135.156 27.8331C134.45 27.0653 133.583 26.4554 132.615 26.045C131.543 25.5954 130.385 25.3732 129.218 25.3932C127.775 25.3484 126.345 25.6812 125.077 26.3574C123.868 27.0703 122.838 28.0404 122.064 29.1956H121.93V26.0631H114.818V48.9726H122.222V36.2979C122.164 35.0434 122.557 33.8087 123.332 32.8079C123.683 32.3696 124.134 32.0183 124.65 31.7823C125.165 31.5464 125.73 31.4325 126.298 31.4499C126.809 31.4219 127.32 31.5127 127.788 31.7149C128.256 31.9172 128.669 32.225 128.992 32.6132C129.639 33.4632 129.966 34.5058 129.917 35.5646V48.9726H137.321V34.0753C137.336 32.8831 137.152 31.6966 136.775 30.5626C136.443 29.5609 135.904 28.6365 135.193 27.8466L135.156 27.8331ZM94.6233 35.4152H108.802V29.2409H94.6233V23.5146H111.157V16.9826H86.6038V48.9726H111.426V42.2641H94.6233V35.4152Z" fill="white"/>
</svg>
